<?xml version="1.0" encoding="UTF-8"?>
<svg width="200" height="40" viewBox="0 0 200 40" fill="none" xmlns="http://www.w3.org/2000/svg">
  <!-- Corn Icon -->
  <g transform="translate(0, 4)">
    <path d="M16 0C8 0 0 8 0 16C0 24 8 32 16 32C24 32 32 24 32 16C32 8 24 0 16 0Z" fill="#78350F"/>
    <path d="M16 4C12 4 8 8 8 16C8 24 12 28 16 28C20 28 24 24 24 16C24 8 20 4 16 4Z" fill="#F59E0B"/>
    <path d="M16 8C14 8 12 12 12 16C12 20 14 24 16 24C18 24 20 20 20 16C20 12 18 8 16 8Z" fill="#78350F"/>
  </g>
  <!-- MAIZ Text -->
  <text x="44" y="28" font-family="Inter" font-weight="800" font-size="24" fill="#78350F">MAIZ</text>
  <!-- .crypto Text -->
  <text x="115" y="28" font-family="Inter" font-weight="700" font-size="24" fill="#F59E0B">.crypto</text>
</svg>
